HIERARCHY
ROOT hip
{
  OFFSET 0.0 0.0 0.0
  CHANNELS 6 Xposition Yposition Zposition Zrotation Yrotation Xrotation
  JOINT torso
  {
    OFFSET 0.0 0.0 0.0
    CHANNELS 3 Zrotation Xrotation Yrotation
    JOINT neck
    {
      OFFSET -31.42098999999993 328.8025209999999 74.3554680000002
      CHANNELS 3 Zrotation Xrotation Yrotation
      JOINT head
      {
        OFFSET 3.3519900000001144 303.81732099999994 206.53942900000015
        CHANNELS 3 Zrotation Xrotation Yrotation
        End Site
        {
          OFFSET 0.0 0.0 0.0
        }
      }
    }
    JOINT left_collar
    {
      OFFSET -31.42098999999993 328.8025209999999 74.3554680000002
      CHANNELS 3 Zrotation Xrotation Yrotation
      JOINT left_upper_arm
      {
        OFFSET -124.490479 -8.162841999999841 8.226441000000023
        CHANNELS 3 Zrotation Xrotation Yrotation
        JOINT left_forearm
        {
          OFFSET -253.595764 -1.5758060000000569 105.0729980000001
          CHANNELS 3 Zrotation Xrotation Yrotation
          JOINT left_hand
          {
            OFFSET -269.48803699999996 0.1478270000000066 -55.346191999999974
            CHANNELS 3 Zrotation Xrotation Yrotation
            End Site
            {
              OFFSET 0.0 0.0 0.0
            }
          }
        }
      }
    }
    JOINT right_collar
    {
      OFFSET -31.42098999999993 328.8025209999999 74.3554680000002
      CHANNELS 3 Zrotation Xrotation Yrotation
      JOINT right_upper_arm
      {
        OFFSET 162.02484099999998 0.46441600000002836 2.2303470000001653
        CHANNELS 3 Zrotation Xrotation Yrotation
        JOINT right_forearm
        {
          OFFSET 240.01246700000004 -25.835875999999985 121.34179699999959
          CHANNELS 3 Zrotation Xrotation Yrotation
          JOINT right_hand
          {
            OFFSET 252.48539699999992 18.910399999999868 -67.53466800000001
            CHANNELS 3 Zrotation Xrotation Yrotation
            End Site
            {
              OFFSET 0.0 0.0 0.0
            }
          }
        }
      }
    }
  }
}
MOTION
Frames: 9
Frame Time: 0.01
-291.0031554819484 283.30107560627243 550.9574085878656 1.7018124022513248 0.9006619523452065 -27.42381333137598 -0.5433370996586231 3.25637047627936 0.42121039786696884 -6.439588103195626 -13.507376004311935 4.9007345977486505 0.0 0.0 0.0 1.0286041148698823 0.21045432650032522 -1.9063708209744612 36.794223692701394 15.71409529486 0.027396547221102137 -7.974048428834081 -3.3992242534575525 -68.87158423066292 0.0 0.0 0.0 -0.2944488367313388 0.0028376015272223633 4.099107935283125 -44.3878092308476 4.478112905514876 -35.013265861596686 -45.098718990231944 -6.182123305065022 17.745490962515063 0.0 0.0 0.0
-291.03618988685014 283.3043045517173 550.854362914402 1.73715208181375 0.9622295076847828 -27.340390872347356 -0.5575242660116312 3.185890987012451 0.417533202437345 -6.436171767569506 -13.486335522076054 4.89745136670053 0.0 0.0 0.0 1.0219795971227383 0.2139657934339729 -1.960694771130391 36.758882343116134 15.7095307655902 -0.0020330057548435952 -8.004884703804464 -3.4118822939052014 -68.86704924562248 0.0 0.0 0.0 -0.3173809190196857 0.003980536410609852 4.036386918267624 -44.4074138775122 4.4867078151994795 -35.00450703666765 -45.101846644901144 -6.179236000903677 17.75512167781585 0.0 0.0 0.0
-291.06848898189185 283.30950712648234 550.7531744482665 1.7784676025977793 1.0313131993343188 -27.248659597469427 -0.574902048935819 3.107374880429858 0.41377323622646967 -6.431541712364497 -13.464573220467113 4.893244071895412 0.0 0.0 0.0 1.0114605173417646 0.2178410794965892 -2.0243494791075847 36.72633757799418 15.705711176619296 -0.030160779081666866 -8.037222633903806 -3.4250699585960738 -68.86128256473448 0.0 0.0 0.0 -0.34168220114598047 0.005163780003436495 3.9658819180796283 -44.427514781658154 4.494741510510329 -34.997012570540534 -45.10533407367892 -6.1766238805995926 17.764060547532313 0.0 0.0 0.0
-291.09976938083975 283.31666308222515 550.65411670081 1.8253298356212806 1.1070988641561046 -27.149822082692026 -0.5953897754489574 3.021755135773995 0.41001052187553894 -6.425837769737087 -13.44236458664265 4.888226444855395 0.0 0.0 0.0 0.9972563443996385 0.22201057640676763 -2.0962836956380984 36.69642869074275 15.702528690099948 -0.056889102088548554 -8.070978855583508 -3.4387611419004487 -68.8544102779995 0.0 0.0 0.0 -0.3670574666134981 0.006366101701626687 3.888637993316514 -44.4479853355131 4.502165685816669 -34.99082386962391 -45.10913098680822 -6.174282816154842 17.772302331991217 0.0 0.0 0.0
-291.12981635565677 283.32569095289983 550.5574509340553 1.877125647328137 1.1884701050112119 -27.045338371949196 -0.6188043313854498 2.9302873623234698 0.4063341992352838 -6.419228140327275 -13.420023472322516 4.882534535096319 0.0 0.0 0.0 0.979672496686651 0.22639283143489994 -2.1751858667269937 36.66896689937207 15.69986919034319 -0.08213752753860444 -8.106080356225837 -3.4529350815156232 -68.84656890169188 0.0 0.0 0.0 -0.39315450207641217 0.007565019217218818 3.8059481429278113 -44.46868268671637 4.508931689289832 -34.98597650559904 -45.11318900079776 -6.1722094048790686 17.779840392935213 0.0 0.0 0.0
-291.1584926420353 283.3364455090843 550.4634206882599 1.9330626012626535 1.274021718563337 -26.936898517103597 -0.6448575328976008 2.8345353948900693 0.4028395330528206 -6.411903957595566 -13.39789735144442 4.876322486469378 0.0 0.0 0.0 0.9591013376972157 0.23089703903191539 -2.2595139790258534 36.64374479927045 15.697615560377667 -0.10584034935931133 -8.142462038165116 -3.467575275015749 -68.83790424629605 0.0 0.0 0.0 -0.4195682162291871 0.008737718648243914 3.7193283156597547 -44.48944929779432 4.514989697010143 -34.98250241508035 -45.11746450686448 -6.17040121960321 17.78666693154021 0.0 0.0 0.0
-291.1857448395731 283.3487171931802 550.3722467217196 1.9921804001695276 1.362087850122471 -26.826386697241634 -0.6731576188772295 2.7363411962478623 0.3996242070323029 -6.404073296463446 -13.376360796188715 4.869757844595462 0.0 0.0 0.0 0.936010811614826 0.2354259009587263 -2.3475326908691225 36.62054525845568 15.695650982229498 -0.12794476248466205 -8.180063502618253 -3.482668061928748 -68.82857025651326 0.0 0.0 0.0 -0.4458472327268933 0.009861992579575875 3.6304841125779546 -44.51011497582417 4.520288399657616 -34.98043131515459 -45.121921052199 -6.168856908332134 17.792773501573713 0.0 0.0 0.0
-291.2116070979114 283.36223369573503 550.2841225551721 2.0533696021781753 1.450785093664166 -26.715837241187245 -0.7032154833716994 2.63777872961649 0.39678414261951067 -6.395954788916816 -13.355807268759104 4.863016522014536 0.0 0.0 0.0 0.9109309973952113 0.2398787161416296 -2.4373570866704206 36.59914946635576 15.693862168545717 -0.14840977915139722 -8.2188253785443 -3.4982009994730556 -68.81872770839989 0.0 0.0 0.0 -0.471502945457967 0.010917114833595363 3.541269739291667 -44.530499400578115 4.52477524531407 -34.97979126544407 -45.1265310379132 -6.167576142460409 17.79815173416559 0.0 0.0 0.0
-291.2362018939843 283.3766637702229 550.1992107859851 2.1153978662013118 1.538069893236637 -26.607383162616863 -0.7344560813530854 2.5410923765933986 0.39440915006901983 -6.387771010517282 -13.336639400951666 4.856277550593324 0.0 0.0 0.0 0.884438913598282 0.24415455649777068 -2.5270022011463786 36.5793439083955 15.692142429313751 -0.1672059351515696 -8.258685589161951 -3.5141611876269643 -68.80854264441966 0.0 0.0 0.0 -0.49602090161528095 0.011884572476783503 3.453640033936895 -44.55041518082631 4.5283972598040885 -34.980608349493444 -45.1312765727861 -6.166559425483975 17.802794184899952 0.0 0.0 0.0
